
<svg height="800" width="800">
    <line x1="268.74542" y1="63.705444" x2="267.21954" y2="64.086914" style="stroke:rgb(255,0,0);stroke-width:2" />
    <line x1="267.21954" y1="64.086914" x2="61.98883" y2="122.45178" style="stroke:rgb(255,0,0);stroke-width:2" />
    <line x1="61.98883" y1="122.45178" x2="43.678284" y2="128.5553" style="stroke:rgb(255,0,0);stroke-width:2" />
    <line x1="43.678284" y1="128.5553" x2="27.275085" y2="136.56616" style="stroke:rgb(255,0,0);stroke-width:2" />
    <line x1="27.275085" y1="136.56616" x2="10.681152" y2="149.53613" style="stroke:rgb(255,0,0);stroke-width:2" />
    <line x1="10.681152" y1="149.53613" x2="2.0980835" y2="160.59875" style="stroke:rgb(255,0,0);stroke-width:2" />
    <line x1="2.0980835" y1="160.59875" x2="0.0" y2="169.37256" style="stroke:rgb(255,0,0);stroke-width:2" />
    <line x1="0.0" y1="169.37256" x2="1.5258789" y2="178.9093" style="stroke:rgb(255,0,0);stroke-width:2" />
    <line x1="1.5258789" y1="178.9093" x2="4.005432" y2="185.77576" style="stroke:rgb(255,0,0);stroke-width:2" />
    <line x1="4.005432" y1="185.77576" x2="11.634827" y2="195.3125" style="stroke:rgb(255,0,0);stroke-width:2" />
    <line x1="11.634827" y1="195.3125" x2="43.48755" y2="230.02625" style="stroke:rgb(255,0,0);stroke-width:2" />
    <line x1="43.48755" y1="230.02625" x2="47.49298" y2="238.03711" style="stroke:rgb(255,0,0);stroke-width:2" />
    <line x1="47.49298" y1="238.03711" x2="48.828125" y2="245.6665" style="stroke:rgb(255,0,0);stroke-width:2" />
    <line x1="48.828125" y1="245.6665" x2="48.828125" y2="253.67737" style="stroke:rgb(255,0,0);stroke-width:2" />
    <line x1="48.828125" y1="253.67737" x2="42.533875" y2="267.0288" style="stroke:rgb(255,0,0);stroke-width:2" />
    <line x1="42.533875" y1="267.0288" x2="27.46582" y2="294.8761" style="stroke:rgb(255,0,0);stroke-width:2" />
    <line x1="27.46582" y1="294.8761" x2="20.02716" y2="310.51636" style="stroke:rgb(255,0,0);stroke-width:2" />
    <line x1="20.02716" y1="310.51636" x2="15.258789" y2="330.73425" style="stroke:rgb(255,0,0);stroke-width:2" />
    <line x1="15.258789" y1="330.73425" x2="12.969971" y2="350.1892" style="stroke:rgb(255,0,0);stroke-width:2" />
    <line x1="12.969971" y1="350.1892" x2="14.11438" y2="366.5924" style="stroke:rgb(255,0,0);stroke-width:2" />
    <line x1="14.11438" y1="366.5924" x2="17.166138" y2="385.6659" style="stroke:rgb(255,0,0);stroke-width:2" />
    <line x1="17.166138" y1="385.6659" x2="21.743774" y2="402.83203" style="stroke:rgb(255,0,0);stroke-width:2" />
    <line x1="21.743774" y1="402.83203" x2="29.182434" y2="421.52405" style="stroke:rgb(255,0,0);stroke-width:2" />
    <line x1="29.182434" y1="421.52405" x2="39.863586" y2="439.8346" style="stroke:rgb(255,0,0);stroke-width:2" />
    <line x1="39.863586" y1="439.8346" x2="52.261353" y2="456.2378" style="stroke:rgb(255,0,0);stroke-width:2" />
    <line x1="52.261353" y1="456.2378" x2="63.705444" y2="467.6819" style="stroke:rgb(255,0,0);stroke-width:2" />
    <line x1="63.705444" y1="467.6819" x2="78.39203" y2="479.12598" style="stroke:rgb(255,0,0);stroke-width:2" />
    <line x1="78.39203" y1="479.12598" x2="93.26935" y2="487.89978" style="stroke:rgb(255,0,0);stroke-width:2" />
    <line x1="93.26935" y1="487.89978" x2="106.43005" y2="493.62183" style="stroke:rgb(255,0,0);stroke-width:2" />
    <line x1="106.43005" y1="493.62183" x2="383.37708" y2="575.6378" style="stroke:rgb(255,0,0);stroke-width:2" />
    <line x1="383.37708" y1="575.6378" x2="627.5177" y2="647.7356" style="stroke:rgb(255,0,0);stroke-width:2" />
    <line x1="627.5177" y1="647.7356" x2="644.11163" y2="652.6947" style="stroke:rgb(255,0,0);stroke-width:2" />
    <line x1="644.11163" y1="652.6947" x2="654.60205" y2="653.8391" style="stroke:rgb(255,0,0);stroke-width:2" />
    <line x1="654.60205" y1="653.8391" x2="664.90173" y2="652.6947" style="stroke:rgb(255,0,0);stroke-width:2" />
    <line x1="664.90173" y1="652.6947" x2="673.8663" y2="649.2615" style="stroke:rgb(255,0,0);stroke-width:2" />
    <line x1="673.8663" y1="649.2615" x2="681.6864" y2="642.7765" style="stroke:rgb(255,0,0);stroke-width:2" />
    <line x1="681.6864" y1="642.7765" x2="685.69183" y2="638.9618" style="stroke:rgb(255,0,0);stroke-width:2" />
    <line x1="685.69183" y1="638.9618" x2="691.6046" y2="628.6621" style="stroke:rgb(255,0,0);stroke-width:2" />
    <line x1="691.6046" y1="628.6621" x2="696.5637" y2="610.73303" style="stroke:rgb(255,0,0);stroke-width:2" />
    <line x1="696.5637" y1="610.73303" x2="709.1522" y2="540.9241" style="stroke:rgb(255,0,0);stroke-width:2" />
    <line x1="709.1522" y1="540.9241" x2="710.6781" y2="522.6135" style="stroke:rgb(255,0,0);stroke-width:2" />
    <line x1="710.6781" y1="522.6135" x2="710.29663" y2="506.21033" style="stroke:rgb(255,0,0);stroke-width:2" />
    <line x1="710.29663" y1="506.21033" x2="707.2449" y2="489.80713" style="stroke:rgb(255,0,0);stroke-width:2" />
    <line x1="707.2449" y1="489.80713" x2="702.09503" y2="471.87805" style="stroke:rgb(255,0,0);stroke-width:2" />
    <line x1="702.09503" y1="471.87805" x2="693.51196" y2="456.2378" style="stroke:rgb(255,0,0);stroke-width:2" />
    <line x1="693.51196" y1="456.2378" x2="681.1142" y2="439.45312" style="stroke:rgb(255,0,0);stroke-width:2" />
    <line x1="681.1142" y1="439.45312" x2="667.19055" y2="424.19434" style="stroke:rgb(255,0,0);stroke-width:2" />
    <line x1="667.19055" y1="424.19434" x2="653.6484" y2="411.60583" style="stroke:rgb(255,0,0);stroke-width:2" />
    <line x1="653.6484" y1="411.60583" x2="428.19977" y2="233.84094" style="stroke:rgb(255,0,0);stroke-width:2" />
    <line x1="428.19977" y1="233.84094" x2="416.75568" y2="221.25244" style="stroke:rgb(255,0,0);stroke-width:2" />
    <line x1="416.75568" y1="221.25244" x2="409.50775" y2="206.75659" style="stroke:rgb(255,0,0);stroke-width:2" />
    <line x1="409.50775" y1="206.75659" x2="405.50232" y2="192.64221" style="stroke:rgb(255,0,0);stroke-width:2" />
    <line x1="405.50232" y1="192.64221" x2="404.16718" y2="176.23901" style="stroke:rgb(255,0,0);stroke-width:2" />
    <line x1="404.16718" y1="176.23901" x2="404.9301" y2="162.88757" style="stroke:rgb(255,0,0);stroke-width:2" />
    <line x1="404.9301" y1="162.88757" x2="408.1726" y2="148.39172" style="stroke:rgb(255,0,0);stroke-width:2" />
    <line x1="408.1726" y1="148.39172" x2="412.5595" y2="131.60706" style="stroke:rgb(255,0,0);stroke-width:2" />
    <line x1="412.5595" y1="131.60706" x2="418.4723" y2="116.72974" style="stroke:rgb(255,0,0);stroke-width:2" />
    <line x1="418.4723" y1="116.72974" x2="426.10168" y2="104.522705" style="stroke:rgb(255,0,0);stroke-width:2" />
    <line x1="426.10168" y1="104.522705" x2="434.68475" y2="94.98596" style="stroke:rgb(255,0,0);stroke-width:2" />
    <line x1="434.68475" y1="94.98596" x2="443.84003" y2="88.50098" style="stroke:rgb(255,0,0);stroke-width:2" />
    <line x1="443.84003" y1="88.50098" x2="456.61926" y2="80.87158" style="stroke:rgb(255,0,0);stroke-width:2" />
    <line x1="456.61926" y1="80.87158" x2="468.8263" y2="76.675415" style="stroke:rgb(255,0,0);stroke-width:2" />
    <line x1="468.8263" y1="76.675415" x2="542.0685" y2="62.561035" style="stroke:rgb(255,0,0);stroke-width:2" />
    <line x1="542.0685" y1="62.561035" x2="567.05475" y2="61.416626" style="stroke:rgb(255,0,0);stroke-width:2" />
    <line x1="567.05475" y1="61.416626" x2="576.7822" y2="62.942505" style="stroke:rgb(255,0,0);stroke-width:2" />
    <line x1="576.7822" y1="62.942505" x2="583.8394" y2="66.37573" style="stroke:rgb(255,0,0);stroke-width:2" />
    <line x1="583.8394" y1="66.37573" x2="589.3707" y2="71.33484" style="stroke:rgb(255,0,0);stroke-width:2" />
    <line x1="589.3707" y1="71.33484" x2="591.4688" y2="77.438354" style="stroke:rgb(255,0,0);stroke-width:2" />
    <line x1="591.4688" y1="77.438354" x2="592.80396" y2="83.1604" style="stroke:rgb(255,0,0);stroke-width:2" />
    <line x1="592.80396" y1="83.1604" x2="592.80396" y2="90.789795" style="stroke:rgb(255,0,0);stroke-width:2" />
    <line x1="592.80396" y1="90.789795" x2="590.7059" y2="98.80066" style="stroke:rgb(255,0,0);stroke-width:2" />
    <line x1="590.7059" y1="98.80066" x2="587.84485" y2="106.81152" style="stroke:rgb(255,0,0);stroke-width:2" />
    <line x1="587.84485" y1="106.81152" x2="575.82855" y2="125.12207" style="stroke:rgb(255,0,0);stroke-width:2" />
    <line x1="575.82855" y1="125.12207" x2="568.0084" y2="138.09204" style="stroke:rgb(255,0,0);stroke-width:2" />
    <line x1="568.0084" y1="138.09204" x2="565.1474" y2="146.1029" style="stroke:rgb(255,0,0);stroke-width:2" />
    <line x1="565.1474" y1="146.1029" x2="563.4308" y2="157.16553" style="stroke:rgb(255,0,0);stroke-width:2" />
    <line x1="563.4308" y1="157.16553" x2="564.003" y2="165.93933" style="stroke:rgb(255,0,0);stroke-width:2" />
    <line x1="564.003" y1="165.93933" x2="567.4362" y2="175.85754" style="stroke:rgb(255,0,0);stroke-width:2" />
    <line x1="567.4362" y1="175.85754" x2="572.01385" y2="183.48694" style="stroke:rgb(255,0,0);stroke-width:2" />
    <line x1="572.01385" y1="183.48694" x2="578.1174" y2="190.73486" style="stroke:rgb(255,0,0);stroke-width:2" />
    <line x1="578.1174" y1="190.73486" x2="587.6541" y2="196.83838" style="stroke:rgb(255,0,0);stroke-width:2" />
    <line x1="587.6541" y1="196.83838" x2="595.8557" y2="199.89014" style="stroke:rgb(255,0,0);stroke-width:2" />
    <line x1="595.8557" y1="199.89014" x2="604.82025" y2="201.79749" style="stroke:rgb(255,0,0);stroke-width:2" />
    <line x1="604.82025" y1="201.79749" x2="613.02185" y2="199.50867" style="stroke:rgb(255,0,0);stroke-width:2" />
    <line x1="613.02185" y1="199.50867" x2="621.79565" y2="196.45691" style="stroke:rgb(255,0,0);stroke-width:2" />
    <line x1="621.79565" y1="196.45691" x2="628.0899" y2="193.02368" style="stroke:rgb(255,0,0);stroke-width:2" />
    <line x1="628.0899" y1="193.02368" x2="640.29694" y2="181.96106" style="stroke:rgb(255,0,0);stroke-width:2" />
    <line x1="640.29694" y1="181.96106" x2="681.87714" y2="138.85498" style="stroke:rgb(255,0,0);stroke-width:2" />
    <line x1="681.87714" y1="138.85498" x2="696.373" y2="125.88501" style="stroke:rgb(255,0,0);stroke-width:2" />
    <line x1="696.373" y1="125.88501" x2="711.44104" y2="117.111206" style="stroke:rgb(255,0,0);stroke-width:2" />
    <line x1="711.44104" y1="117.111206" x2="726.5091" y2="111.00769" style="stroke:rgb(255,0,0);stroke-width:2" />
    <line x1="726.5091" y1="111.00769" x2="745.96405" y2="104.141235" style="stroke:rgb(255,0,0);stroke-width:2" />
    <line x1="745.96405" y1="104.141235" x2="774.0021" y2="97.27478" style="stroke:rgb(255,0,0);stroke-width:2" />
    <line x1="774.0021" y1="97.27478" x2="783.72955" y2="96.13037" style="stroke:rgb(255,0,0);stroke-width:2" />
    <line x1="783.72955" y1="96.13037" x2="790.78674" y2="97.65625" style="stroke:rgb(255,0,0);stroke-width:2" />
    <line x1="790.78674" y1="97.65625" x2="796.5088" y2="102.23389" style="stroke:rgb(255,0,0);stroke-width:2" />
    <line x1="796.5088" y1="102.23389" x2="800.70496" y2="107.19299" style="stroke:rgb(255,0,0);stroke-width:2" />
    <line x1="800.70496" y1="107.19299" x2="802.6123" y2="113.29651" style="stroke:rgb(255,0,0);stroke-width:2" />
    <line x1="802.6123" y1="113.29651" x2="803.37524" y2="120.54443" style="stroke:rgb(255,0,0);stroke-width:2" />
    <line x1="803.37524" y1="120.54443" x2="802.0401" y2="126.64795" style="stroke:rgb(255,0,0);stroke-width:2" />
    <line x1="802.0401" y1="126.64795" x2="799.56055" y2="131.98853" style="stroke:rgb(255,0,0);stroke-width:2" />
    <line x1="799.56055" y1="131.98853" x2="793.45703" y2="139.99939" style="stroke:rgb(255,0,0);stroke-width:2" />
    <line x1="793.45703" y1="139.99939" x2="735.8551" y2="196.07544" style="stroke:rgb(255,0,0);stroke-width:2" />
    <line x1="735.8551" y1="196.07544" x2="724.411" y2="210.18982" style="stroke:rgb(255,0,0);stroke-width:2" />
    <line x1="724.411" y1="210.18982" x2="716.97235" y2="221.63391" style="stroke:rgb(255,0,0);stroke-width:2" />
    <line x1="716.97235" y1="221.63391" x2="709.91516" y2="234.60388" style="stroke:rgb(255,0,0);stroke-width:2" />
    <line x1="709.91516" y1="234.60388" x2="706.48193" y2="245.6665" style="stroke:rgb(255,0,0);stroke-width:2" />
    <line x1="706.48193" y1="245.6665" x2="703.81165" y2="260.54382" style="stroke:rgb(255,0,0);stroke-width:2" />
    <line x1="703.81165" y1="260.54382" x2="703.81165" y2="276.94702" style="stroke:rgb(255,0,0);stroke-width:2" />
    <line x1="703.81165" y1="276.94702" x2="706.10046" y2="294.8761" style="stroke:rgb(255,0,0);stroke-width:2" />
    <line x1="706.10046" y1="294.8761" x2="711.6318" y2="310.51636" style="stroke:rgb(255,0,0);stroke-width:2" />
    <line x1="711.6318" y1="310.51636" x2="718.4982" y2="323.8678" style="stroke:rgb(255,0,0);stroke-width:2" />
    <line x1="718.4982" y1="323.8678" x2="727.27203" y2="337.21924" style="stroke:rgb(255,0,0);stroke-width:2" />
    <line x1="727.27203" y1="337.21924" x2="740.6235" y2="350.1892" style="stroke:rgb(255,0,0);stroke-width:2" />
    <line x1="740.6235" y1="350.1892" x2="752.8305" y2="359.34448" style="stroke:rgb(255,0,0);stroke-width:2" />
    <line x1="752.8305" y1="359.34448" x2="872.99347" y2="440.59753" style="stroke:rgb(255,0,0);stroke-width:2" />
    <line x1="872.99347" y1="440.59753" x2="880.62286" y2="445.55664" style="stroke:rgb(255,0,0);stroke-width:2" />
    <line x1="880.62286" y1="445.55664" x2="887.8708" y2="447.84546" style="stroke:rgb(255,0,0);stroke-width:2" />
    <line x1="887.8708" y1="447.84546" x2="894.73724" y2="447.08252" style="stroke:rgb(255,0,0);stroke-width:2" />
    <line x1="894.73724" y1="447.08252" x2="900.0778" y2="443.26782" style="stroke:rgb(255,0,0);stroke-width:2" />
    <line x1="900.0778" y1="443.26782" x2="906.3721" y2="436.78284" style="stroke:rgb(255,0,0);stroke-width:2" />
    <line x1="906.3721" y1="436.78284" x2="911.5219" y2="429.15344" style="stroke:rgb(255,0,0);stroke-width:2" />
    <line x1="911.5219" y1="429.15344" x2="915.9088" y2="421.14258" style="stroke:rgb(255,0,0);stroke-width:2" />
    <line x1="915.9088" y1="421.14258" x2="919.7235" y2="410.8429" style="stroke:rgb(255,0,0);stroke-width:2" />
    <line x1="919.7235" y1="410.8429" x2="938.797" y2="351.7151" style="stroke:rgb(255,0,0);stroke-width:2" />
    <line x1="938.797" y1="351.7151" x2="941.84875" y2="339.88953" style="stroke:rgb(255,0,0);stroke-width:2" />
    <line x1="941.84875" y1="339.88953" x2="943.56537" y2="328.06396" style="stroke:rgb(255,0,0);stroke-width:2" />
    <line x1="943.56537" y1="328.06396" x2="944.1376" y2="315.85693" style="stroke:rgb(255,0,0);stroke-width:2" />
    <line x1="944.1376" y1="315.85693" x2="942.6117" y2="304.03137" style="stroke:rgb(255,0,0);stroke-width:2" />
    <line x1="942.6117" y1="304.03137" x2="933.8379" y2="252.53296" style="stroke:rgb(255,0,0);stroke-width:2" />
    <line x1="933.8379" y1="252.53296" x2="929.451" y2="232.31506" style="stroke:rgb(255,0,0);stroke-width:2" />
    <line x1="929.451" y1="232.31506" x2="922.966" y2="212.47864" style="stroke:rgb(255,0,0);stroke-width:2" />
    <line x1="922.966" y1="212.47864" x2="911.9034" y2="183.48694" style="stroke:rgb(255,0,0);stroke-width:2" />
    <line x1="911.9034" y1="183.48694" x2="894.928" y2="146.1029" style="stroke:rgb(255,0,0);stroke-width:2" />
    <line x1="894.928" y1="146.1029" x2="886.9171" y2="130.84412" style="stroke:rgb(255,0,0);stroke-width:2" />
    <line x1="886.9171" y1="130.84412" x2="876.61743" y2="115.20386" style="stroke:rgb(255,0,0);stroke-width:2" />
    <line x1="876.61743" y1="115.20386" x2="864.21967" y2="101.08948" style="stroke:rgb(255,0,0);stroke-width:2" />
    <line x1="864.21967" y1="101.08948" x2="851.05896" y2="88.88245" style="stroke:rgb(255,0,0);stroke-width:2" />
    <line x1="851.05896" y1="88.88245" x2="835.22797" y2="78.201294" style="stroke:rgb(255,0,0);stroke-width:2" />
    <line x1="835.22797" y1="78.201294" x2="820.35065" y2="70.5719" style="stroke:rgb(255,0,0);stroke-width:2" />
    <line x1="820.35065" y1="70.5719" x2="800.13275" y2="62.179565" style="stroke:rgb(255,0,0);stroke-width:2" />
    <line x1="800.13275" y1="62.179565" x2="771.71326" y2="54.1687" style="stroke:rgb(255,0,0);stroke-width:2" />
    <line x1="771.71326" y1="54.1687" x2="602.53143" y2="9.155273" style="stroke:rgb(255,0,0);stroke-width:2" />
    <line x1="602.53143" y1="9.155273" x2="583.2672" y2="5.722046" style="stroke:rgb(255,0,0);stroke-width:2" />
    <line x1="583.2672" y1="5.722046" x2="557.8995" y2="1.9073486" style="stroke:rgb(255,0,0);stroke-width:2" />
    <line x1="557.8995" y1="1.9073486" x2="533.2947" y2="0.0" style="stroke:rgb(255,0,0);stroke-width:2" />
    <line x1="533.2947" y1="0.0" x2="509.8343" y2="0.38146973" style="stroke:rgb(255,0,0);stroke-width:2" />
    <line x1="509.8343" y1="0.38146973" x2="488.66272" y2="3.4332275" style="stroke:rgb(255,0,0);stroke-width:2" />
    <line x1="488.66272" y1="3.4332275" x2="469.20776" y2="8.773804" style="stroke:rgb(255,0,0);stroke-width:2" />
    <line x1="469.20776" y1="8.773804" x2="323.10486" y2="49.209595" style="stroke:rgb(255,0,0);stroke-width:2" />
<line x1="323.10486" y1="49.209595" x2="268.74542" y2="63.705444" style="stroke:rgb(255,0,0);stroke-width:2" />
</svg>